#!OML:ASF I:\Actors\actors\Patient Classification 2\Patient 1\Session 1\actor1.ASF
:FULLY-SPECIFIED
:DEGREES
296
root -1.14415 17.7478 5.93826 -10.2923 0.788927 -2.72746
lowerback 7.01 -0.613493 1.90278
upperback 1.00728 -0.603443 2.19871
thorax -2.88641 -0.310616 1.25644
lowerneck -14.3838 -14.8635 -13.4783
upperneck 17.3412 -19.4951 8.99799
head 10.0842 -9.13478 2.3656
rclavicle 5.06901e-015 9.14409e-015
rhumerus 13.8496 27.9147 -60.7449
rradius 51.2934
rwrist -7.65999
rhand -9.6514 -29.2786
rfingers 7.12502
rthumb 16.3193 -58.6119
lclavicle 5.06901e-015 9.14409e-015
lhumerus 13.2047 -32.0947 60.4079
lradius 60.1099
lwrist 27.0342
lhand -8.54784 -17.6724
lfingers 7.12502
lthumb 17.3817 11.5704
rfemur 31.8833 -2.53633 18.1835
rtibia -21.1556
rfoot -10.5581 -20.2578
rtoes -1.29175
lfemur 31.6575 -4.71998 -13.202
ltibia -24.9031
lfoot 3.18987 11.3888
ltoes -14.7644
297
root -1.13977 17.7322 5.96023 -10.6357 0.639391 -2.69489
lowerback 6.54501 -0.640335 1.82632
upperback 0.827595 -0.655951 2.19252
thorax -2.81095 -0.336144 1.29314
lowerneck -13.2031 -15.1491 -13.8852
upperneck 17.4022 -20.0438 9.21918
head 10.0304 -9.43855 2.46574
rclavicle -1.09332e-015 -1.31198e-014
rhumerus 12.8281 29.841 -60.1529
rradius 52.4216
rwrist -8.98792
rhand -10.025 -29.4261
rfingers 7.12502
rthumb 15.9596 -58.7886
lclavicle -1.09332e-015 -1.31198e-014
lhumerus 11.4561 -33.2122 60.2193
lradius 61.9457
lwrist 28.1411
lhand -8.70781 -17.605
lfingers 7.12502
lthumb 17.2277 11.6514
rfemur 32.3928 -2.39394 18.1435
rtibia -21.2781
rfoot -10.6271 -20.2058
rtoes -1.42101
lfemur 32.1746 -4.60781 -13.2518
ltibia -24.9346
lfoot 3.09935 11.3368
ltoes -15.4227
298
root -1.13449 17.7174 5.98002 -10.9401 0.517688 -2.67862
lowerback 6.06314 -0.676605 1.78863
upperback 0.646913 -0.719054 2.15819
thorax -2.72727 -0.367442 1.2792
lowerneck -11.9063 -15.3945 -14.3734
upperneck 17.2632 -20.5816 9.68689
head 9.92654 -9.72931 2.67387
rclavicle -2.98177e-016 -1.59028e-014
rhumerus 11.2715 31.0092 -60.3763
rradius 53.7208
rwrist -9.5587
rhand -10.1335 -29.3063
rfingers 7.12502
rthumb 15.855 -58.6772
lclavicle -2.98177e-016 -1.59028e-014
lhumerus 9.72173 -34.1784 60.194
lradius 63.6959
lwrist 28.996
lhand -8.66881 -17.5211
lfingers 7.12502
lthumb 17.2652 11.732
rfemur 32.8325 -2.29568 18.1084
rtibia -21.3646
rfoot -10.6763 -20.1159
rtoes -1.57046
lfemur 32.6405 -4.52058 -13.2929
ltibia -24.98
lfoot 3.05265 11.3016
ltoes -15.9502
299
root -1.12951 17.7015 5.9999 -11.2372 0.399681 -2.67789
lowerback 5.55306 -0.715492 1.78121
upperback 0.479837 -0.785122 2.10595
thorax -2.614 -0.400542 1.22887
lowerneck -10.4224 -15.6254 -15.001
upperneck 16.9033 -21.1502 10.4303
head 9.77192 -10.0332 3.00338
rclavicle 1.2424e-015 -1.19271e-015
rhumerus 9.58397 32.0986 -60.6918
rradius 55.2377
rwrist -10.4433
rhand -10.0871 -29.2366
rfingers 7.12502
rthumb 15.8998 -58.6039
lclavicle 1.2424e-015 -1.19271e-015
lhumerus 8.0033 -35.0926 60.2739
lradius 65.3309
lwrist 29.6588
lhand -8.55315 -17.5598
lfingers 7.12502
lthumb 17.3765 11.6834
rfemur 33.2513 -2.18381 18.0976
rtibia -21.4177
rfoot -10.7712 -20.0119
rtoes -1.44927
lfemur 33.1076 -4.44375 -13.3099
ltibia -25.0364
lfoot 2.96368 11.2715
ltoes -16.165
300
root -1.12579 17.6866 6.01999 -11.5045 0.238214 -2.6823
lowerback 5.35749 -0.730199 1.70777
upperback 0.104898 -0.804526 2.12895
thorax -2.88951 -0.410411 1.29665
lowerneck -9.13445 -15.8566 -15.5273
upperneck 16.9038 -21.6581 10.6989
head 9.70673 -10.3352 3.15692
rclavicle -1.20762e-014 1.35174e-014
rhumerus 7.57064 33.2519 -61.1122
rradius 56.7775
rwrist -11.3566
rhand -10.1302 -29.3396
rfingers 7.12502
rthumb 15.8583 -58.7101
lclavicle -1.20762e-014 1.35174e-014
lhumerus 5.87569 -36.0834 60.7611
lradius 67.0133
lwrist 30.1886
lhand -8.50663 -17.6773
lfingers 7.12502
lthumb 17.4213 11.562
rfemur 33.6315 -2.00989 18.1195
rtibia -21.4588
rfoot -10.9198 -19.9498
rtoes -1.32387
lfemur 33.5467 -4.2684 -13.2778
ltibia -25.0891
lfoot 2.8647 11.1808
ltoes -16.2715
301
root -1.12324 17.6738 6.03745 -11.7183 0.0763302 -2.71129
lowerback 4.82464 -0.758979 1.66683
upperback -0.0493974 -0.85722 2.16288
thorax -2.74792 -0.435838 1.35167
lowerneck -8.34315 -16.09 -15.8064
upperneck 17.0636 -22.0869 10.6499
head 9.70808 -10.5889 3.15187
rclavicle 2.78299e-015 -9.14409e-015
rhumerus 6.05431 34.1732 -61.3842
rradius 58.062
rwrist -12.1057
rhand -10.3294 -29.5532
rfingers 7.12502
rthumb 15.6664 -58.9389
lclavicle 2.78299e-015 -9.14409e-015
lhumerus 4.13034 -36.8259 61.0596
lradius 68.6636
lwrist 30.7511
lhand -8.54822 -17.7487
lfingers 7.12502
lthumb 17.3813 11.4942
rfemur 33.9449 -1.86878 18.1673
rtibia -21.4993
rfoot -11.0147 -19.8769
rtoes -1.4211
lfemur 33.909 -4.09591 -13.2093
ltibia -25.1288
lfoot 2.76254 11.1189
ltoes -16.4146
302
root -1.12126 17.6623 6.0526 -11.9065 -0.0213161 -2.71968
lowerback 4.13356 -0.815202 1.56728
upperback -0.0684115 -0.957767 2.20083
thorax -2.37619 -0.483956 1.44154
lowerneck -7.93959 -16.416 -16.1757
upperneck 17.404 -22.6161 10.6565
head 9.87594 -10.8663 3.11975
rclavicle -8.05078e-015 -1.47101e-014
rhumerus 4.86763 34.9452 -61.4984
rradius 59.1925
rwrist -12.7248
rhand -10.3163 -29.732
rfingers 7.12502
rthumb 15.679 -59.1167
lclavicle -8.05078e-015 -1.47101e-014
lhumerus 2.7225 -37.357 61.268
lradius 70.1609
lwrist 31.3322
lhand -8.48513 -17.7653
lfingers 7.12502
lthumb 17.442 11.4722
rfemur 34.2331 -1.8375 18.1595
rtibia -21.5483
rfoot -11.0057 -19.7559
rtoes -1.64323
lfemur 34.2146 -4.02205 -13.1866
ltibia -25.1591
lfoot 2.6395 11.1156
ltoes -16.5374
303
root -1.11889 17.6519 6.06504 -12.0828 -0.131367 -2.72917
lowerback 3.70463 -0.880417 1.46061
upperback -0.207653 -1.05803 2.24249
thorax -2.27463 -0.532472 1.54405
lowerneck -7.44981 -16.7009 -16.7989
upperneck 17.7233 -23.1446 10.9718
head 10.0987 -11.1361 3.22231
rclavicle -2.44505e-014 2.78299e-014
rhumerus 3.4955 35.7906 -61.694
rradius 60.4258
rwrist -13.2939
rhand -9.9887 -29.8891
rfingers 7.12502
rthumb 15.9945 -59.2488
lclavicle -2.44505e-014 2.78299e-014
lhumerus 1.18422 -37.8706 61.6189
lradius 71.6095
lwrist 31.9039
lhand -8.25209 -17.682
lfingers 7.12502
lthumb 17.6663 11.5354
rfemur 34.4961 -1.83386 18.1401
rtibia -21.6076
rfoot -10.9042 -19.6304
rtoes -2.13117
lfemur 34.5005 -3.97775 -13.1679
ltibia -25.1779
lfoot 2.49026 11.1235
ltoes -16.4057
304
root -1.11482 17.6415 6.07564 -12.245 -0.267612 -2.74708
lowerback 3.80923 -0.965679 1.51399
upperback -0.685319 -1.15463 2.1778
thorax -2.82605 -0.582371 1.46235
lowerneck -6.53333 -16.6944 -17.2785
upperneck 17.9067 -23.3801 11.4358
head 10.1612 -11.2798 3.45594
rclavicle -1.49089e-015 6.75868e-015
rhumerus 1.39396 36.7875 -62.4713
rradius 61.8923
rwrist -14.0082
rhand -9.69089 -30.0217
rfingers 7.12502
rthumb 16.2813 -59.3581
lclavicle -1.49089e-015 6.75868e-015
lhumerus -0.955162 -38.6101 62.1395
lradius 73.1517
lwrist 32.4751
lhand -8.07223 -17.6437
lfingers 7.12502
lthumb 17.8393 11.5581
rfemur 34.7318 -1.74264 18.162
rtibia -21.6597
rfoot -10.8657 -19.5687
rtoes -2.58734
lfemur 34.772 -3.94326 -13.1522
ltibia -25.1813
lfoot 2.31406 11.1422
ltoes -16.2418
305
root -1.10838 17.6325 6.08945 -12.3817 -0.314346 -2.69217
lowerback 3.42002 -1.03712 1.32442
upperback -0.870207 -1.2644 2.20836
thorax -2.79121 -0.633773 1.60113
lowerneck -5.96996 -16.7301 -17.5057
upperneck 17.9513 -23.5692 11.6513
head 10.1647 -11.392 3.5622
rclavicle 6.55989e-015 -1.82882e-014
rhumerus -0.320856 37.6704 -62.755
rradius 63.5055
rwrist -14.959
rhand -9.80772 -30.0698
rfingers 7.12502
rthumb 16.1688 -59.4154
lclavicle 6.55989e-015 -1.82882e-014
lhumerus -2.66901 -39.0819 62.6839
lradius 74.6506
lwrist 33.0057
lhand -8.11132 -17.7734
lfingers 7.12502
lthumb 17.8017 11.4318
rfemur 34.9555 -1.66207 18.0947
rtibia -21.6975
rfoot -10.9657 -19.5317
rtoes -2.59765
lfemur 34.9981 -4.00911 -13.2719
ltibia -25.1758
lfoot 2.14045 11.2034
ltoes -16.3711
306
root -1.10043 17.6277 6.10762 -12.4338 -0.306714 -2.6429
lowerback 2.91791 -1.11535 1.20291
upperback -1.06423 -1.38263 2.20798
thorax -2.70346 -0.690668 1.6669
lowerneck -5.68604 -16.8396 -17.6348
upperneck 18.2608 -23.8056 11.6002
head 10.2712 -11.5234 3.53077
rclavicle -6.75868e-015 3.18055e-014
rhumerus -2.07927 38.5469 -63.0507
rradius 65.1354
rwrist -15.7429
rhand -10.1753 -30.0602
rfingers 7.12502
rthumb 15.8149 -59.4342
lclavicle -6.75868e-015 3.18055e-014
lhumerus -4.39386 -39.5306 63.2856
lradius 76.1964
lwrist 33.5564
lhand -8.29168 -17.8137
lfingers 7.12502
lthumb 17.6282 11.4072
rfemur 35.0956 -1.68791 17.9847
rtibia -21.7292
rfoot -11.0492 -19.4378
rtoes -2.40508
lfemur 35.1272 -4.11775 -13.4092
ltibia -25.1657
lfoot 2.02651 11.277
ltoes -16.5757
307
root -1.0924 17.6243 6.12618 -12.4307 -0.332205 -2.6219
lowerback 2.37585 -1.17761 1.15954
upperback -1.26284 -1.47665 2.20103
thorax -2.60008 -0.736842 1.67881
lowerneck -5.45938 -16.9552 -17.7512
upperneck 18.6279 -24.034 11.4768
head 10.3963 -11.6527 3.4693
rclavicle -2.127e-014 1.51076e-014
rhumerus -3.76095 39.4094 -63.3075
rradius 66.7424
rwrist -16.4011
rhand -10.4201 -30.1176
rfingers 7.12502
rthumb 15.5791 -59.5101
lclavicle -2.127e-014 1.51076e-014
lhumerus -6.06164 -40.0086 63.8672
lradius 77.7258
lwrist 34.1532
lhand -8.36439 -17.7144
lfingers 7.12502
lthumb 17.5582 11.5128
rfemur 35.1582 -1.6764 17.92
rtibia -21.7435
rfoot -11.0875 -19.3655
rtoes -2.3684
lfemur 35.2096 -4.19074 -13.5012
ltibia -25.1503
lfoot 1.89627 11.3586
ltoes -16.3914
308
root -1.08591 17.6188 6.14356 -12.471 -0.402958 -2.60732
lowerback 1.88917 -1.23462 1.12718
upperback -1.45068 -1.56205 2.17614
thorax -2.51756 -0.77905 1.66596
lowerneck -5.23131 -17.0528 -17.7558
upperneck 18.9633 -24.2324 11.2974
head 10.4824 -11.7673 3.38392
rclavicle 1.82882e-014 -1.47101e-014
rhumerus -5.42827 40.1841 -63.6092
rradius 68.34
rwrist -16.8946
rhand -10.2076 -30.2621
rfingers 7.12502
rthumb 15.7837 -59.6386
lclavicle 1.82882e-014 -1.47101e-014
lhumerus -7.74976 -40.6004 64.3599
lradius 79.2646
lwrist 34.7046
lhand -8.3965 -17.6657
lfingers 7.12502
lthumb 17.5273 11.5641
rfemur 35.2528 -1.50627 17.9334
rtibia -21.7352
rfoot -11.1871 -19.3917
rtoes -2.42036
lfemur 35.341 -4.24091 -13.5758
ltibia -25.1263
lfoot 1.71477 11.4504
ltoes -16.1815
309
root -1.08043 17.6115 6.16024 -12.5826 -0.514581 -2.6607
lowerback 1.46439 -1.2828 1.14248
upperback -1.60338 -1.63309 2.16388
thorax -2.43497 -0.814841 1.63908
lowerneck -4.88426 -17.1169 -17.838
upperneck 19.1395 -24.4336 11.3626
head 10.5359 -11.8764 3.4008
rclavicle 2.66371e-014 -1.90833e-014
rhumerus -7.08304 40.6865 -63.9352
rradius 69.8379
rwrist -16.9894
rhand -9.06379 -30.3743
rfingers 7.12502
rthumb 16.885 -59.6602
lclavicle 2.66371e-014 -1.90833e-014
lhumerus -9.43241 -41.3355 64.741
lradius 80.88
lwrist 35.2064
lhand -8.60728 -17.7652
lfingers 7.12502
lthumb 17.3244 11.4827
rfemur 35.4236 -1.3219 18.0311
rtibia -21.7334
rfoot -11.291 -19.409
rtoes -2.36812
lfemur 35.5396 -4.27405 -13.5674
ltibia -25.0832
lfoot 1.55968 11.4949
ltoes -16.5844
